<?xml version="1.0" encoding="UTF-8" standalone="no"?><svg xmlns="http://www.w3.org/2000/svg" xmlns:xlink="http://www.w3.org/1999/xlink" contentScriptType="application/ecmascript" contentStyleType="text/css" height="576px" preserveAspectRatio="none" style="width:936px;height:576px;" version="1.1" viewBox="0 0 936 576" width="936px" zoomAndPan="magnify"><defs><filter height="300%" id="foukqwkpemdqj" width="300%" x="-1" y="-1"><feGaussianBlur result="blurOut" stdDeviation="2.0"/><feColorMatrix in="blurOut" result="blurOut2" type="matrix" values="0 0 0 0 0 0 0 0 0 0 0 0 0 0 0 0 0 0 .4 0"/><feOffset dx="4.0" dy="4.0" in="blurOut2" result="blurOut3"/><feBlend in="SourceGraphic" in2="blurOut3" mode="normal"/></filter></defs><g><line style="stroke: #A80036; stroke-width: 1.0; stroke-dasharray: 5.0,5.0;" x1="63" x2="63" y1="41.0679" y2="532.9521"/><line style="stroke: #A80036; stroke-width: 1.0; stroke-dasharray: 5.0,5.0;" x1="367" x2="367" y1="41.0679" y2="532.9521"/><line style="stroke: #A80036; stroke-width: 1.0; stroke-dasharray: 5.0,5.0;" x1="689" x2="689" y1="41.0679" y2="532.9521"/><line style="stroke: #A80036; stroke-width: 1.0; stroke-dasharray: 5.0,5.0;" x1="834" x2="834" y1="41.0679" y2="532.9521"/><rect fill="#FEFECE" filter="url(#foukqwkpemdqj)" height="33.0679" style="stroke: #A80036; stroke-width: 1.5;" width="106" x="8" y="3"/><text fill="#000000" font-family="sans-serif" font-size="14" lengthAdjust="spacingAndGlyphs" textLength="92" x="15" y="24.9659">Order Service</text><rect fill="#FEFECE" filter="url(#foukqwkpemdqj)" height="33.0679" style="stroke: #A80036; stroke-width: 1.5;" width="106" x="8" y="531.9521"/><text fill="#000000" font-family="sans-serif" font-size="14" lengthAdjust="spacingAndGlyphs" textLength="92" x="15" y="553.9181">Order Service</text><rect fill="#FEFECE" filter="url(#foukqwkpemdqj)" height="33.0679" style="stroke: #A80036; stroke-width: 1.5;" width="144" x="293" y="3"/><text fill="#000000" font-family="sans-serif" font-size="14" lengthAdjust="spacingAndGlyphs" textLength="130" x="300" y="24.9659">Notification Service</text><rect fill="#FEFECE" filter="url(#foukqwkpemdqj)" height="33.0679" style="stroke: #A80036; stroke-width: 1.5;" width="144" x="293" y="531.9521"/><text fill="#000000" font-family="sans-serif" font-size="14" lengthAdjust="spacingAndGlyphs" textLength="130" x="300" y="553.9181">Notification Service</text><rect fill="#FEFECE" filter="url(#foukqwkpemdqj)" height="33.0679" style="stroke: #A80036; stroke-width: 1.5;" width="98" x="638" y="3"/><text fill="#000000" font-family="sans-serif" font-size="14" lengthAdjust="spacingAndGlyphs" textLength="84" x="645" y="24.9659">SMTP Server</text><rect fill="#FEFECE" filter="url(#foukqwkpemdqj)" height="33.0679" style="stroke: #A80036; stroke-width: 1.5;" width="98" x="638" y="531.9521"/><text fill="#000000" font-family="sans-serif" font-size="14" lengthAdjust="spacingAndGlyphs" textLength="84" x="645" y="553.9181">SMTP Server</text><rect fill="#FEFECE" filter="url(#foukqwkpemdqj)" height="33.0679" style="stroke: #A80036; stroke-width: 1.5;" width="165" x="750" y="3"/><text fill="#000000" font-family="sans-serif" font-size="14" lengthAdjust="spacingAndGlyphs" textLength="151" x="757" y="24.9659">Authentication Service</text><rect fill="#FEFECE" filter="url(#foukqwkpemdqj)" height="33.0679" style="stroke: #A80036; stroke-width: 1.5;" width="165" x="750" y="531.9521"/><text fill="#000000" font-family="sans-serif" font-size="14" lengthAdjust="spacingAndGlyphs" textLength="151" x="757" y="553.9181">Authentication Service</text><rect fill="#EEEEEE" filter="url(#foukqwkpemdqj)" height="3" style="stroke: #EEEEEE; stroke-width: 1.0;" width="921" x="3" y="72.9209"/><line style="stroke: #000000; stroke-width: 1.0;" x1="3" x2="924" y1="72.9209" y2="72.9209"/><line style="stroke: #000000; stroke-width: 1.0;" x1="3" x2="924" y1="75.9209" y2="75.9209"/><rect fill="#EEEEEE" filter="url(#foukqwkpemdqj)" height="25.706" style="stroke: #000000; stroke-width: 2.0;" width="229" x="349" y="61.0679"/><text fill="#000000" font-family="sans-serif" font-size="13" font-weight="bold" lengthAdjust="spacingAndGlyphs" textLength="212" x="355" y="78.9649">Order Confirmation Notification</text><polygon fill="#A80036" points="355,116.4799,365,120.4799,355,124.4799,359,120.4799" style="stroke: #A80036; stroke-width: 1.0;"/><line style="stroke: #A80036; stroke-width: 1.0;" x1="63" x2="361" y1="120.4799" y2="120.4799"/><text fill="#000000" font-family="sans-serif" font-size="13" lengthAdjust="spacingAndGlyphs" textLength="280" x="70" y="114.6709">Notify user (order confirmation details, user ID)</text><polygon fill="#A80036" points="822.5,148.186,832.5,152.186,822.5,156.186,826.5,152.186" style="stroke: #A80036; stroke-width: 1.0;"/><line style="stroke: #A80036; stroke-width: 1.0;" x1="367" x2="828.5" y1="152.186" y2="152.186"/><text fill="#000000" font-family="sans-serif" font-size="13" lengthAdjust="spacingAndGlyphs" textLength="140" x="374" y="146.377">GET /users/me (user ID)</text><polygon fill="#A80036" points="378,179.892,368,183.892,378,187.892,374,183.892" style="stroke: #A80036; stroke-width: 1.0;"/><line style="stroke: #A80036; stroke-width: 1.0; stroke-dasharray: 2.0,2.0;" x1="372" x2="833.5" y1="183.892" y2="183.892"/><text fill="#000000" font-family="sans-serif" font-size="13" lengthAdjust="spacingAndGlyphs" textLength="63" x="384" y="178.083">User email</text><polygon fill="#A80036" points="677,211.598,687,215.598,677,219.598,681,215.598" style="stroke: #A80036; stroke-width: 1.0;"/><line style="stroke: #A80036; stroke-width: 1.0;" x1="367" x2="683" y1="215.598" y2="215.598"/><text fill="#000000" font-family="sans-serif" font-size="13" lengthAdjust="spacingAndGlyphs" textLength="298" x="374" y="209.789">Send email (order confirmation details, user email)</text><polygon fill="#A80036" points="378,243.304,368,247.304,378,251.304,374,247.304" style="stroke: #A80036; stroke-width: 1.0;"/><line style="stroke: #A80036; stroke-width: 1.0; stroke-dasharray: 2.0,2.0;" x1="372" x2="688" y1="247.304" y2="247.304"/><text fill="#000000" font-family="sans-serif" font-size="13" lengthAdjust="spacingAndGlyphs" textLength="18" x="384" y="241.495">OK</text><polygon fill="#A80036" points="74,275.01,64,279.01,74,283.01,70,279.01" style="stroke: #A80036; stroke-width: 1.0;"/><line style="stroke: #A80036; stroke-width: 1.0; stroke-dasharray: 2.0,2.0;" x1="68" x2="366" y1="279.01" y2="279.01"/><text fill="#000000" font-family="sans-serif" font-size="13" lengthAdjust="spacingAndGlyphs" textLength="18" x="80" y="273.201">OK</text><rect fill="#EEEEEE" filter="url(#foukqwkpemdqj)" height="3" style="stroke: #EEEEEE; stroke-width: 1.0;" width="921" x="3" y="308.863"/><line style="stroke: #000000; stroke-width: 1.0;" x1="3" x2="924" y1="308.863" y2="308.863"/><line style="stroke: #000000; stroke-width: 1.0;" x1="3" x2="924" y1="311.863" y2="311.863"/><rect fill="#EEEEEE" filter="url(#foukqwkpemdqj)" height="25.706" style="stroke: #000000; stroke-width: 2.0;" width="234" x="346.5" y="297.01"/><text fill="#000000" font-family="sans-serif" font-size="13" font-weight="bold" lengthAdjust="spacingAndGlyphs" textLength="217" x="352.5" y="314.907">Order Status Update Notification</text><polygon fill="#A80036" points="355,352.4221,365,356.4221,355,360.4221,359,356.4221" style="stroke: #A80036; stroke-width: 1.0;"/><line style="stroke: #A80036; stroke-width: 1.0;" x1="63" x2="361" y1="356.4221" y2="356.4221"/><text fill="#000000" font-family="sans-serif" font-size="13" lengthAdjust="spacingAndGlyphs" textLength="250" x="70" y="350.6131">Notify user (status update details, user ID)</text><polygon fill="#A80036" points="822.5,384.1281,832.5,388.1281,822.5,392.1281,826.5,388.1281" style="stroke: #A80036; stroke-width: 1.0;"/><line style="stroke: #A80036; stroke-width: 1.0;" x1="367" x2="828.5" y1="388.1281" y2="388.1281"/><text fill="#000000" font-family="sans-serif" font-size="13" lengthAdjust="spacingAndGlyphs" textLength="140" x="374" y="382.3191">GET /users/me (user ID)</text><polygon fill="#A80036" points="378,415.8341,368,419.8341,378,423.8341,374,419.8341" style="stroke: #A80036; stroke-width: 1.0;"/><line style="stroke: #A80036; stroke-width: 1.0; stroke-dasharray: 2.0,2.0;" x1="372" x2="833.5" y1="419.8341" y2="419.8341"/><text fill="#000000" font-family="sans-serif" font-size="13" lengthAdjust="spacingAndGlyphs" textLength="63" x="384" y="414.0251">User email</text><polygon fill="#A80036" points="677,447.5401,687,451.5401,677,455.5401,681,451.5401" style="stroke: #A80036; stroke-width: 1.0;"/><line style="stroke: #A80036; stroke-width: 1.0;" x1="367" x2="683" y1="451.5401" y2="451.5401"/><text fill="#000000" font-family="sans-serif" font-size="13" lengthAdjust="spacingAndGlyphs" textLength="268" x="374" y="445.7311">Send email (status update details, user email)</text><polygon fill="#A80036" points="378,479.2461,368,483.2461,378,487.2461,374,483.2461" style="stroke: #A80036; stroke-width: 1.0;"/><line style="stroke: #A80036; stroke-width: 1.0; stroke-dasharray: 2.0,2.0;" x1="372" x2="688" y1="483.2461" y2="483.2461"/><text fill="#000000" font-family="sans-serif" font-size="13" lengthAdjust="spacingAndGlyphs" textLength="18" x="384" y="477.4371">OK</text><polygon fill="#A80036" points="74,510.9521,64,514.9521,74,518.9521,70,514.9521" style="stroke: #A80036; stroke-width: 1.0;"/><line style="stroke: #A80036; stroke-width: 1.0; stroke-dasharray: 2.0,2.0;" x1="68" x2="366" y1="514.9521" y2="514.9521"/><text fill="#000000" font-family="sans-serif" font-size="13" lengthAdjust="spacingAndGlyphs" textLength="18" x="80" y="509.1431">OK</text><!--MD5=[6df4cbc657a38d3517a67f29cfbdd135]
@startuml notification
participant "Order Service" as OrderSvc
participant "Notification Service" as NotificationSvc
participant "SMTP Server" as SMTP
participant "Authentication Service" as AuthService

== Order Confirmation Notification ==
OrderSvc -> NotificationSvc: Notify user (order confirmation details, user ID)
NotificationSvc -> AuthService: GET /users/me (user ID)
AuthService - -> NotificationSvc: User email
NotificationSvc -> SMTP: Send email (order confirmation details, user email)
SMTP - -> NotificationSvc: OK
NotificationSvc - -> OrderSvc: OK

== Order Status Update Notification ==
OrderSvc -> NotificationSvc: Notify user (status update details, user ID)
NotificationSvc -> AuthService: GET /users/me (user ID)
AuthService - -> NotificationSvc: User email
NotificationSvc -> SMTP: Send email (status update details, user email)
SMTP - -> NotificationSvc: OK
NotificationSvc - -> OrderSvc: OK

@enduml

PlantUML version 1.2020.02(Sun Mar 01 15:52:07 IST 2020)
(GPL source distribution)
Java Runtime: OpenJDK Runtime Environment
JVM: OpenJDK 64-Bit Server VM
Java Version: 21.0.6+7-Ubuntu-124.04.1
Operating System: Linux
Default Encoding: UTF-8
Language: en
Country: US
--></g></svg>