<?xml version="1.0" encoding="UTF-8" standalone="no"?><svg xmlns="http://www.w3.org/2000/svg" xmlns:xlink="http://www.w3.org/1999/xlink" contentScriptType="application/ecmascript" contentStyleType="text/css" height="2648px" preserveAspectRatio="none" style="width:1284px;height:2648px;" version="1.1" viewBox="0 0 1284 2648" width="1284px" zoomAndPan="magnify"><defs><filter height="300%" id="f11ulfglmei5qm" width="300%" x="-1" y="-1"><feGaussianBlur result="blurOut" stdDeviation="2.0"/><feColorMatrix in="blurOut" result="blurOut2" type="matrix" values="0 0 0 0 0 0 0 0 0 0 0 0 0 0 0 0 0 0 .4 0"/><feOffset dx="4.0" dy="4.0" in="blurOut2" result="blurOut3"/><feBlend in="SourceGraphic" in2="blurOut3" mode="normal"/></filter></defs><g><rect fill="#FFFFFF" filter="url(#f11ulfglmei5qm)" height="163.512" style="stroke: #000000; stroke-width: 2.0;" width="759.5" x="13" y="514.5401"/><rect fill="#FFFFFF" height="80.3939" style="stroke: none; stroke-width: 1.0;" width="759.5" x="13" y="597.6582"/><rect fill="#FFFFFF" filter="url(#f11ulfglmei5qm)" height="290.336" style="stroke: #000000; stroke-width: 2.0;" width="1202" x="60" y="832.8762"/><rect fill="#FFFFFF" height="112.0999" style="stroke: none; stroke-width: 1.0;" width="1202" x="60" y="1011.1123"/><rect fill="#FFFFFF" filter="url(#f11ulfglmei5qm)" height="467.848" style="stroke: #000000; stroke-width: 2.0;" width="1212" x="50" y="1278.0363"/><rect fill="#FFFFFF" filter="url(#f11ulfglmei5qm)" height="226.924" style="stroke: #000000; stroke-width: 2.0;" width="1023" x="60" y="1399.8603"/><rect fill="#FFFFFF" height="80.3939" style="stroke: none; stroke-width: 1.0;" width="1023" x="60" y="1546.3904"/><rect fill="#FFFFFF" height="112.0999" style="stroke: none; stroke-width: 1.0;" width="1212" x="50" y="1633.7843"/><rect fill="#FFFFFF" filter="url(#f11ulfglmei5qm)" height="404.436" style="stroke: #000000; stroke-width: 2.0;" width="1212" x="50" y="1900.7083"/><rect fill="#FFFFFF" filter="url(#f11ulfglmei5qm)" height="163.512" style="stroke: #000000; stroke-width: 2.0;" width="712.5" x="60" y="2022.5324"/><rect fill="#FFFFFF" height="80.3939" style="stroke: none; stroke-width: 1.0;" width="712.5" x="60" y="2105.6504"/><rect fill="#FFFFFF" height="112.0999" style="stroke: none; stroke-width: 1.0;" width="1212" x="50" y="2193.0444"/><line style="stroke: #A80036; stroke-width: 1.0; stroke-dasharray: 5.0,5.0;" x1="41" x2="41" y1="89.0679" y2="2558.0864"/><line style="stroke: #A80036; stroke-width: 1.0; stroke-dasharray: 5.0,5.0;" x1="95" x2="95" y1="89.0679" y2="2558.0864"/><line style="stroke: #A80036; stroke-width: 1.0; stroke-dasharray: 5.0,5.0;" x1="392" x2="392" y1="89.0679" y2="2558.0864"/><line style="stroke: #A80036; stroke-width: 1.0; stroke-dasharray: 5.0,5.0;" x1="701.5" x2="701.5" y1="89.0679" y2="2558.0864"/><line style="stroke: #A80036; stroke-width: 1.0; stroke-dasharray: 5.0,5.0;" x1="1010" x2="1010" y1="89.0679" y2="2558.0864"/><line style="stroke: #A80036; stroke-width: 1.0; stroke-dasharray: 5.0,5.0;" x1="1167" x2="1167" y1="89.0679" y2="2558.0864"/><text fill="#000000" font-family="sans-serif" font-size="14" lengthAdjust="spacingAndGlyphs" textLength="31" x="23" y="84.9659">User</text><ellipse cx="41.5" cy="13" fill="#FEFECE" filter="url(#f11ulfglmei5qm)" rx="8" ry="8" style="stroke: #A80036; stroke-width: 2.0;"/><path d="M41.5,21 L41.5,48 M28.5,29 L54.5,29 M41.5,48 L28.5,63 M41.5,48 L54.5,63 " fill="none" filter="url(#f11ulfglmei5qm)" style="stroke: #A80036; stroke-width: 2.0;"/><text fill="#000000" font-family="sans-serif" font-size="14" lengthAdjust="spacingAndGlyphs" textLength="31" x="23" y="2572.0524">User</text><ellipse cx="41.5" cy="2586.1543" fill="#FEFECE" filter="url(#f11ulfglmei5qm)" rx="8" ry="8" style="stroke: #A80036; stroke-width: 2.0;"/><path d="M41.5,2594.1543 L41.5,2621.1543 M28.5,2602.1543 L54.5,2602.1543 M41.5,2621.1543 L28.5,2636.1543 M41.5,2621.1543 L54.5,2636.1543 " fill="none" filter="url(#f11ulfglmei5qm)" style="stroke: #A80036; stroke-width: 2.0;"/><text fill="#000000" font-family="sans-serif" font-size="14" lengthAdjust="spacingAndGlyphs" textLength="44" x="70" y="84.9659">Admin</text><ellipse cx="95" cy="13" fill="#FEFECE" filter="url(#f11ulfglmei5qm)" rx="8" ry="8" style="stroke: #A80036; stroke-width: 2.0;"/><path d="M95,21 L95,48 M82,29 L108,29 M95,48 L82,63 M95,48 L108,63 " fill="none" filter="url(#f11ulfglmei5qm)" style="stroke: #A80036; stroke-width: 2.0;"/><text fill="#000000" font-family="sans-serif" font-size="14" lengthAdjust="spacingAndGlyphs" textLength="44" x="70" y="2572.0524">Admin</text><ellipse cx="95" cy="2586.1543" fill="#FEFECE" filter="url(#f11ulfglmei5qm)" rx="8" ry="8" style="stroke: #A80036; stroke-width: 2.0;"/><path d="M95,2594.1543 L95,2621.1543 M82,2602.1543 L108,2602.1543 M95,2621.1543 L82,2636.1543 M95,2621.1543 L108,2636.1543 " fill="none" filter="url(#f11ulfglmei5qm)" style="stroke: #A80036; stroke-width: 2.0;"/><rect fill="#FEFECE" filter="url(#f11ulfglmei5qm)" height="33.0679" style="stroke: #A80036; stroke-width: 1.5;" width="133" x="324" y="51"/><text fill="#000000" font-family="sans-serif" font-size="14" lengthAdjust="spacingAndGlyphs" textLength="119" x="331" y="72.9659">Client Application</text><rect fill="#FEFECE" filter="url(#f11ulfglmei5qm)" height="33.0679" style="stroke: #A80036; stroke-width: 1.5;" width="133" x="324" y="2557.0864"/><text fill="#000000" font-family="sans-serif" font-size="14" lengthAdjust="spacingAndGlyphs" textLength="119" x="331" y="2579.0524">Client Application</text><rect fill="#FEFECE" filter="url(#f11ulfglmei5qm)" height="33.0679" style="stroke: #A80036; stroke-width: 1.5;" width="118" x="640.5" y="51"/><text fill="#000000" font-family="sans-serif" font-size="14" lengthAdjust="spacingAndGlyphs" textLength="104" x="647.5" y="72.9659">Product Service</text><rect fill="#FEFECE" filter="url(#f11ulfglmei5qm)" height="33.0679" style="stroke: #A80036; stroke-width: 1.5;" width="118" x="640.5" y="2557.0864"/><text fill="#000000" font-family="sans-serif" font-size="14" lengthAdjust="spacingAndGlyphs" textLength="104" x="647.5" y="2579.0524">Product Service</text><text fill="#000000" font-family="sans-serif" font-size="14" lengthAdjust="spacingAndGlyphs" textLength="119" x="948" y="84.9659">Product Database</text><path d="M992.5,34 C992.5,24 1010.5,24 1010.5,24 C1010.5,24 1028.5,24 1028.5,34 L1028.5,60 C1028.5,70 1010.5,70 1010.5,70 C1010.5,70 992.5,70 992.5,60 L992.5,34 " fill="#FEFECE" filter="url(#f11ulfglmei5qm)" style="stroke: #000000; stroke-width: 1.5;"/><path d="M992.5,34 C992.5,44 1010.5,44 1010.5,44 C1010.5,44 1028.5,44 1028.5,34 " fill="none" style="stroke: #000000; stroke-width: 1.5;"/><text fill="#000000" font-family="sans-serif" font-size="14" lengthAdjust="spacingAndGlyphs" textLength="119" x="948" y="2572.0524">Product Database</text><path d="M992.5,2586.1543 C992.5,2576.1543 1010.5,2576.1543 1010.5,2576.1543 C1010.5,2576.1543 1028.5,2576.1543 1028.5,2586.1543 L1028.5,2612.1543 C1028.5,2622.1543 1010.5,2622.1543 1010.5,2622.1543 C1010.5,2622.1543 992.5,2622.1543 992.5,2612.1543 L992.5,2586.1543 " fill="#FEFECE" filter="url(#f11ulfglmei5qm)" style="stroke: #000000; stroke-width: 1.5;"/><path d="M992.5,2586.1543 C992.5,2596.1543 1010.5,2596.1543 1010.5,2596.1543 C1010.5,2596.1543 1028.5,2596.1543 1028.5,2586.1543 " fill="none" style="stroke: #000000; stroke-width: 1.5;"/><rect fill="#FEFECE" filter="url(#f11ulfglmei5qm)" height="33.0679" style="stroke: #A80036; stroke-width: 1.5;" width="165" x="1083" y="51"/><text fill="#000000" font-family="sans-serif" font-size="14" lengthAdjust="spacingAndGlyphs" textLength="151" x="1090" y="72.9659">Authentication Service</text><rect fill="#FEFECE" filter="url(#f11ulfglmei5qm)" height="33.0679" style="stroke: #A80036; stroke-width: 1.5;" width="165" x="1083" y="2557.0864"/><text fill="#000000" font-family="sans-serif" font-size="14" lengthAdjust="spacingAndGlyphs" textLength="151" x="1090" y="2579.0524">Authentication Service</text><rect fill="#EEEEEE" filter="url(#f11ulfglmei5qm)" height="3" style="stroke: #EEEEEE; stroke-width: 1.0;" width="1269" x="3" y="120.9209"/><line style="stroke: #000000; stroke-width: 1.0;" x1="3" x2="1272" y1="120.9209" y2="120.9209"/><line style="stroke: #000000; stroke-width: 1.0;" x1="3" x2="1272" y1="123.9209" y2="123.9209"/><rect fill="#EEEEEE" filter="url(#f11ulfglmei5qm)" height="25.706" style="stroke: #000000; stroke-width: 2.0;" width="101" x="587" y="109.0679"/><text fill="#000000" font-family="sans-serif" font-size="13" font-weight="bold" lengthAdjust="spacingAndGlyphs" textLength="84" x="593" y="126.9649">List Products</text><polygon fill="#A80036" points="380.5,164.4799,390.5,168.4799,380.5,172.4799,384.5,168.4799" style="stroke: #A80036; stroke-width: 1.0;"/><line style="stroke: #A80036; stroke-width: 1.0;" x1="41.5" x2="386.5" y1="168.4799" y2="168.4799"/><text fill="#000000" font-family="sans-serif" font-size="13" lengthAdjust="spacingAndGlyphs" textLength="327" x="48.5" y="162.6709">Requests Product List (with optional filters, pagination)</text><polygon fill="#A80036" points="689.5,196.186,699.5,200.186,689.5,204.186,693.5,200.186" style="stroke: #A80036; stroke-width: 1.0;"/><line style="stroke: #A80036; stroke-width: 1.0;" x1="392.5" x2="695.5" y1="200.186" y2="200.186"/><text fill="#000000" font-family="sans-serif" font-size="13" lengthAdjust="spacingAndGlyphs" textLength="197" x="399.5" y="194.377">GET /products (filters, page, limit)</text><polygon fill="#A80036" points="998.5,227.892,1008.5,231.892,998.5,235.892,1002.5,231.892" style="stroke: #A80036; stroke-width: 1.0;"/><line style="stroke: #A80036; stroke-width: 1.0;" x1="701.5" x2="1004.5" y1="231.892" y2="231.892"/><text fill="#000000" font-family="sans-serif" font-size="13" lengthAdjust="spacingAndGlyphs" textLength="285" x="708.5" y="226.083">Query products (with applied filters, pagination)</text><polygon fill="#A80036" points="712.5,259.598,702.5,263.598,712.5,267.598,708.5,263.598" style="stroke: #A80036; stroke-width: 1.0;"/><line style="stroke: #A80036; stroke-width: 1.0; stroke-dasharray: 2.0,2.0;" x1="706.5" x2="1009.5" y1="263.598" y2="263.598"/><text fill="#000000" font-family="sans-serif" font-size="13" lengthAdjust="spacingAndGlyphs" textLength="93" x="718.5" y="257.789">List of products</text><polygon fill="#A80036" points="403.5,291.304,393.5,295.304,403.5,299.304,399.5,295.304" style="stroke: #A80036; stroke-width: 1.0;"/><line style="stroke: #A80036; stroke-width: 1.0; stroke-dasharray: 2.0,2.0;" x1="397.5" x2="700.5" y1="295.304" y2="295.304"/><text fill="#000000" font-family="sans-serif" font-size="13" lengthAdjust="spacingAndGlyphs" textLength="165" x="409.5" y="289.495">List of products (paginated)</text><polygon fill="#A80036" points="52.5,323.01,42.5,327.01,52.5,331.01,48.5,327.01" style="stroke: #A80036; stroke-width: 1.0;"/><line style="stroke: #A80036; stroke-width: 1.0; stroke-dasharray: 2.0,2.0;" x1="46.5" x2="391.5" y1="327.01" y2="327.01"/><text fill="#000000" font-family="sans-serif" font-size="13" lengthAdjust="spacingAndGlyphs" textLength="120" x="58.5" y="321.201">Displays product list</text><rect fill="#EEEEEE" filter="url(#f11ulfglmei5qm)" height="3" style="stroke: #EEEEEE; stroke-width: 1.0;" width="1269" x="3" y="356.863"/><line style="stroke: #000000; stroke-width: 1.0;" x1="3" x2="1272" y1="356.863" y2="356.863"/><line style="stroke: #000000; stroke-width: 1.0;" x1="3" x2="1272" y1="359.863" y2="359.863"/><rect fill="#EEEEEE" filter="url(#f11ulfglmei5qm)" height="25.706" style="stroke: #000000; stroke-width: 2.0;" width="144" x="565.5" y="345.01"/><text fill="#000000" font-family="sans-serif" font-size="13" font-weight="bold" lengthAdjust="spacingAndGlyphs" textLength="127" x="571.5" y="362.907">Get Product Details</text><polygon fill="#A80036" points="380.5,400.4221,390.5,404.4221,380.5,408.4221,384.5,404.4221" style="stroke: #A80036; stroke-width: 1.0;"/><line style="stroke: #A80036; stroke-width: 1.0;" x1="41.5" x2="386.5" y1="404.4221" y2="404.4221"/><text fill="#000000" font-family="sans-serif" font-size="13" lengthAdjust="spacingAndGlyphs" textLength="191" x="48.5" y="398.6131">Requests Product Details (by ID)</text><polygon fill="#A80036" points="689.5,432.1281,699.5,436.1281,689.5,440.1281,693.5,436.1281" style="stroke: #A80036; stroke-width: 1.0;"/><line style="stroke: #A80036; stroke-width: 1.0;" x1="392.5" x2="695.5" y1="436.1281" y2="436.1281"/><text fill="#000000" font-family="sans-serif" font-size="13" lengthAdjust="spacingAndGlyphs" textLength="111" x="399.5" y="430.3191">GET /products/{id}</text><polygon fill="#A80036" points="998.5,463.8341,1008.5,467.8341,998.5,471.8341,1002.5,467.8341" style="stroke: #A80036; stroke-width: 1.0;"/><line style="stroke: #A80036; stroke-width: 1.0;" x1="701.5" x2="1004.5" y1="467.8341" y2="467.8341"/><text fill="#000000" font-family="sans-serif" font-size="13" lengthAdjust="spacingAndGlyphs" textLength="111" x="708.5" y="462.0251">Find product by ID</text><polygon fill="#A80036" points="712.5,495.5401,702.5,499.5401,712.5,503.5401,708.5,499.5401" style="stroke: #A80036; stroke-width: 1.0;"/><line style="stroke: #A80036; stroke-width: 1.0; stroke-dasharray: 2.0,2.0;" x1="706.5" x2="1009.5" y1="499.5401" y2="499.5401"/><text fill="#000000" font-family="sans-serif" font-size="13" lengthAdjust="spacingAndGlyphs" textLength="177" x="718.5" y="493.7311">Product details (or not found)</text><path d="M13,514.5401 L76,514.5401 L76,523.5401 L66,533.5401 L13,533.5401 L13,514.5401 " fill="#EEEEEE" style="stroke: #000000; stroke-width: 1.0;"/><rect fill="none" height="163.512" style="stroke: #000000; stroke-width: 2.0;" width="759.5" x="13" y="514.5401"/><text fill="#000000" font-family="sans-serif" font-size="13" font-weight="bold" lengthAdjust="spacingAndGlyphs" textLength="18" x="28" y="529.4371">alt</text><text fill="#000000" font-family="sans-serif" font-size="11" font-weight="bold" lengthAdjust="spacingAndGlyphs" textLength="87" x="91" y="528.299">[Product found]</text><polygon fill="#A80036" points="403.5,553.9521,393.5,557.9521,403.5,561.9521,399.5,557.9521" style="stroke: #A80036; stroke-width: 1.0;"/><line style="stroke: #A80036; stroke-width: 1.0; stroke-dasharray: 2.0,2.0;" x1="397.5" x2="700.5" y1="557.9521" y2="557.9521"/><text fill="#000000" font-family="sans-serif" font-size="13" lengthAdjust="spacingAndGlyphs" textLength="90" x="409.5" y="552.1431">Product details</text><polygon fill="#A80036" points="52.5,585.6582,42.5,589.6582,52.5,593.6582,48.5,589.6582" style="stroke: #A80036; stroke-width: 1.0;"/><line style="stroke: #A80036; stroke-width: 1.0; stroke-dasharray: 2.0,2.0;" x1="46.5" x2="391.5" y1="589.6582" y2="589.6582"/><text fill="#000000" font-family="sans-serif" font-size="13" lengthAdjust="spacingAndGlyphs" textLength="142" x="58.5" y="583.8492">Displays product details</text><line style="stroke: #000000; stroke-width: 1.0; stroke-dasharray: 2.0,2.0;" x1="13" x2="772.5" y1="598.6582" y2="598.6582"/><text fill="#000000" font-family="sans-serif" font-size="11" font-weight="bold" lengthAdjust="spacingAndGlyphs" textLength="109" x="18" y="610.4171">[Product not found]</text><polygon fill="#A80036" points="403.5,634.3461,393.5,638.3461,403.5,642.3461,399.5,638.3461" style="stroke: #A80036; stroke-width: 1.0;"/><line style="stroke: #A80036; stroke-width: 1.0; stroke-dasharray: 2.0,2.0;" x1="397.5" x2="700.5" y1="638.3461" y2="638.3461"/><text fill="#000000" font-family="sans-serif" font-size="13" lengthAdjust="spacingAndGlyphs" textLength="111" x="409.5" y="632.5371">Product not found</text><polygon fill="#A80036" points="52.5,666.0521,42.5,670.0521,52.5,674.0521,48.5,670.0521" style="stroke: #A80036; stroke-width: 1.0;"/><line style="stroke: #A80036; stroke-width: 1.0; stroke-dasharray: 2.0,2.0;" x1="46.5" x2="391.5" y1="670.0521" y2="670.0521"/><text fill="#000000" font-family="sans-serif" font-size="13" lengthAdjust="spacingAndGlyphs" textLength="229" x="58.5" y="664.2431">Displays "product not found" message</text><rect fill="#EEEEEE" filter="url(#f11ulfglmei5qm)" height="3" style="stroke: #EEEEEE; stroke-width: 1.0;" width="1269" x="3" y="706.9051"/><line style="stroke: #000000; stroke-width: 1.0;" x1="3" x2="1272" y1="706.9051" y2="706.9051"/><line style="stroke: #000000; stroke-width: 1.0;" x1="3" x2="1272" y1="709.9051" y2="709.9051"/><rect fill="#EEEEEE" filter="url(#f11ulfglmei5qm)" height="25.706" style="stroke: #000000; stroke-width: 2.0;" width="162" x="556.5" y="695.0521"/><text fill="#000000" font-family="sans-serif" font-size="13" font-weight="bold" lengthAdjust="spacingAndGlyphs" textLength="145" x="562.5" y="712.9491">Add a Product (Admin)</text><polygon fill="#A80036" points="380.5,750.4641,390.5,754.4641,380.5,758.4641,384.5,754.4641" style="stroke: #A80036; stroke-width: 1.0;"/><line style="stroke: #A80036; stroke-width: 1.0;" x1="95" x2="386.5" y1="754.4641" y2="754.4641"/><text fill="#000000" font-family="sans-serif" font-size="13" lengthAdjust="spacingAndGlyphs" textLength="126" x="102" y="748.6551">Initiates Add Product</text><polygon fill="#A80036" points="689.5,782.1701,699.5,786.1701,689.5,790.1701,693.5,786.1701" style="stroke: #A80036; stroke-width: 1.0;"/><line style="stroke: #A80036; stroke-width: 1.0;" x1="392.5" x2="695.5" y1="786.1701" y2="786.1701"/><text fill="#000000" font-family="sans-serif" font-size="13" lengthAdjust="spacingAndGlyphs" textLength="212" x="399.5" y="780.3611">POST /products (product data, JWT)</text><polygon fill="#A80036" points="1155.5,813.8762,1165.5,817.8762,1155.5,821.8762,1159.5,817.8762" style="stroke: #A80036; stroke-width: 1.0;"/><line style="stroke: #A80036; stroke-width: 1.0;" x1="701.5" x2="1161.5" y1="817.8762" y2="817.8762"/><text fill="#000000" font-family="sans-serif" font-size="13" lengthAdjust="spacingAndGlyphs" textLength="247" x="708.5" y="812.0671">POST /auth/has-authority (JWT, "ADMIN")</text><path d="M60,832.8762 L123,832.8762 L123,841.8762 L113,851.8762 L60,851.8762 L60,832.8762 " fill="#EEEEEE" style="stroke: #000000; stroke-width: 1.0;"/><rect fill="none" height="290.336" style="stroke: #000000; stroke-width: 2.0;" width="1202" x="60" y="832.8762"/><text fill="#000000" font-family="sans-serif" font-size="13" font-weight="bold" lengthAdjust="spacingAndGlyphs" textLength="18" x="75" y="847.7732">alt</text><text fill="#000000" font-family="sans-serif" font-size="11" font-weight="bold" lengthAdjust="spacingAndGlyphs" textLength="83" x="138" y="846.6351">[Has authority]</text><polygon fill="#A80036" points="712.5,872.2882,702.5,876.2882,712.5,880.2882,708.5,876.2882" style="stroke: #A80036; stroke-width: 1.0;"/><line style="stroke: #A80036; stroke-width: 1.0; stroke-dasharray: 2.0,2.0;" x1="706.5" x2="1166.5" y1="876.2882" y2="876.2882"/><text fill="#000000" font-family="sans-serif" font-size="13" lengthAdjust="spacingAndGlyphs" textLength="166" x="718.5" y="870.4792">Token is valid, has authority</text><polygon fill="#A80036" points="998.5,903.9942,1008.5,907.9942,998.5,911.9942,1002.5,907.9942" style="stroke: #A80036; stroke-width: 1.0;"/><line style="stroke: #A80036; stroke-width: 1.0;" x1="701.5" x2="1004.5" y1="907.9942" y2="907.9942"/><text fill="#000000" font-family="sans-serif" font-size="13" lengthAdjust="spacingAndGlyphs" textLength="107" x="708.5" y="902.1852">Save new product</text><polygon fill="#A80036" points="712.5,935.7002,702.5,939.7002,712.5,943.7002,708.5,939.7002" style="stroke: #A80036; stroke-width: 1.0;"/><line style="stroke: #A80036; stroke-width: 1.0; stroke-dasharray: 2.0,2.0;" x1="706.5" x2="1009.5" y1="939.7002" y2="939.7002"/><text fill="#000000" font-family="sans-serif" font-size="13" lengthAdjust="spacingAndGlyphs" textLength="247" x="718.5" y="933.8912">Product saved confirmation (with new ID)</text><polygon fill="#A80036" points="403.5,967.4062,393.5,971.4062,403.5,975.4062,399.5,971.4062" style="stroke: #A80036; stroke-width: 1.0;"/><line style="stroke: #A80036; stroke-width: 1.0; stroke-dasharray: 2.0,2.0;" x1="397.5" x2="700.5" y1="971.4062" y2="971.4062"/><text fill="#000000" font-family="sans-serif" font-size="13" lengthAdjust="spacingAndGlyphs" textLength="162" x="409.5" y="965.5972">Product added successfully</text><polygon fill="#A80036" points="106,999.1123,96,1003.1123,106,1007.1123,102,1003.1123" style="stroke: #A80036; stroke-width: 1.0;"/><line style="stroke: #A80036; stroke-width: 1.0; stroke-dasharray: 2.0,2.0;" x1="100" x2="391.5" y1="1003.1123" y2="1003.1123"/><text fill="#000000" font-family="sans-serif" font-size="13" lengthAdjust="spacingAndGlyphs" textLength="169" x="112" y="997.3032">Product added confirmation</text><line style="stroke: #000000; stroke-width: 1.0; stroke-dasharray: 2.0,2.0;" x1="60" x2="1262" y1="1012.1123" y2="1012.1123"/><text fill="#000000" font-family="sans-serif" font-size="11" font-weight="bold" lengthAdjust="spacingAndGlyphs" textLength="142" x="65" y="1023.8712">[Does not have authority]</text><polygon fill="#A80036" points="712.5,1047.8002,702.5,1051.8002,712.5,1055.8002,708.5,1051.8002" style="stroke: #A80036; stroke-width: 1.0;"/><line style="stroke: #A80036; stroke-width: 1.0; stroke-dasharray: 2.0,2.0;" x1="706.5" x2="1166.5" y1="1051.8002" y2="1051.8002"/><text fill="#000000" font-family="sans-serif" font-size="13" lengthAdjust="spacingAndGlyphs" textLength="83" x="718.5" y="1045.9912">Unauthorized</text><polygon fill="#A80036" points="403.5,1079.5062,393.5,1083.5062,403.5,1087.5062,399.5,1083.5062" style="stroke: #A80036; stroke-width: 1.0;"/><line style="stroke: #A80036; stroke-width: 1.0; stroke-dasharray: 2.0,2.0;" x1="397.5" x2="700.5" y1="1083.5062" y2="1083.5062"/><text fill="#000000" font-family="sans-serif" font-size="13" lengthAdjust="spacingAndGlyphs" textLength="83" x="409.5" y="1077.6972">Unauthorized</text><polygon fill="#A80036" points="106,1111.2122,96,1115.2122,106,1119.2122,102,1115.2122" style="stroke: #A80036; stroke-width: 1.0;"/><line style="stroke: #A80036; stroke-width: 1.0; stroke-dasharray: 2.0,2.0;" x1="100" x2="391.5" y1="1115.2122" y2="1115.2122"/><text fill="#000000" font-family="sans-serif" font-size="13" lengthAdjust="spacingAndGlyphs" textLength="139" x="112" y="1109.4032">Unauthorized message</text><rect fill="#EEEEEE" filter="url(#f11ulfglmei5qm)" height="3" style="stroke: #EEEEEE; stroke-width: 1.0;" width="1269" x="3" y="1152.0652"/><line style="stroke: #000000; stroke-width: 1.0;" x1="3" x2="1272" y1="1152.0652" y2="1152.0652"/><line style="stroke: #000000; stroke-width: 1.0;" x1="3" x2="1272" y1="1155.0652" y2="1155.0652"/><rect fill="#EEEEEE" filter="url(#f11ulfglmei5qm)" height="25.706" style="stroke: #000000; stroke-width: 2.0;" width="174" x="550.5" y="1140.2122"/><text fill="#000000" font-family="sans-serif" font-size="13" font-weight="bold" lengthAdjust="spacingAndGlyphs" textLength="157" x="556.5" y="1158.1092">Update Product (Admin)</text><polygon fill="#A80036" points="380.5,1195.6242,390.5,1199.6242,380.5,1203.6242,384.5,1199.6242" style="stroke: #A80036; stroke-width: 1.0;"/><line style="stroke: #A80036; stroke-width: 1.0;" x1="95" x2="386.5" y1="1199.6242" y2="1199.6242"/><text fill="#000000" font-family="sans-serif" font-size="13" lengthAdjust="spacingAndGlyphs" textLength="189" x="102" y="1193.8152">Initiates Update Product (by ID)</text><polygon fill="#A80036" points="689.5,1227.3302,699.5,1231.3302,689.5,1235.3302,693.5,1231.3302" style="stroke: #A80036; stroke-width: 1.0;"/><line style="stroke: #A80036; stroke-width: 1.0;" x1="392.5" x2="695.5" y1="1231.3302" y2="1231.3302"/><text fill="#000000" font-family="sans-serif" font-size="13" lengthAdjust="spacingAndGlyphs" textLength="285" x="399.5" y="1225.5212">PUT /products/{id} (updated product data, JWT)</text><polygon fill="#A80036" points="1155.5,1259.0363,1165.5,1263.0363,1155.5,1267.0363,1159.5,1263.0363" style="stroke: #A80036; stroke-width: 1.0;"/><line style="stroke: #A80036; stroke-width: 1.0;" x1="701.5" x2="1161.5" y1="1263.0363" y2="1263.0363"/><text fill="#000000" font-family="sans-serif" font-size="13" lengthAdjust="spacingAndGlyphs" textLength="247" x="708.5" y="1257.2273">POST /auth/has-authority (JWT, "ADMIN")</text><path d="M50,1278.0363 L113,1278.0363 L113,1287.0363 L103,1297.0363 L50,1297.0363 L50,1278.0363 " fill="#EEEEEE" style="stroke: #000000; stroke-width: 1.0;"/><rect fill="none" height="467.848" style="stroke: #000000; stroke-width: 2.0;" width="1212" x="50" y="1278.0363"/><text fill="#000000" font-family="sans-serif" font-size="13" font-weight="bold" lengthAdjust="spacingAndGlyphs" textLength="18" x="65" y="1292.9333">alt</text><text fill="#000000" font-family="sans-serif" font-size="11" font-weight="bold" lengthAdjust="spacingAndGlyphs" textLength="83" x="128" y="1291.7952">[Has authority]</text><polygon fill="#A80036" points="712.5,1317.4483,702.5,1321.4483,712.5,1325.4483,708.5,1321.4483" style="stroke: #A80036; stroke-width: 1.0;"/><line style="stroke: #A80036; stroke-width: 1.0; stroke-dasharray: 2.0,2.0;" x1="706.5" x2="1166.5" y1="1321.4483" y2="1321.4483"/><text fill="#000000" font-family="sans-serif" font-size="13" lengthAdjust="spacingAndGlyphs" textLength="166" x="718.5" y="1315.6393">Token is valid, has authority</text><polygon fill="#A80036" points="998.5,1349.1543,1008.5,1353.1543,998.5,1357.1543,1002.5,1353.1543" style="stroke: #A80036; stroke-width: 1.0;"/><line style="stroke: #A80036; stroke-width: 1.0;" x1="701.5" x2="1004.5" y1="1353.1543" y2="1353.1543"/><text fill="#000000" font-family="sans-serif" font-size="13" lengthAdjust="spacingAndGlyphs" textLength="111" x="708.5" y="1347.3453">Find product by ID</text><polygon fill="#A80036" points="712.5,1380.8603,702.5,1384.8603,712.5,1388.8603,708.5,1384.8603" style="stroke: #A80036; stroke-width: 1.0;"/><line style="stroke: #A80036; stroke-width: 1.0; stroke-dasharray: 2.0,2.0;" x1="706.5" x2="1009.5" y1="1384.8603" y2="1384.8603"/><text fill="#000000" font-family="sans-serif" font-size="13" lengthAdjust="spacingAndGlyphs" textLength="177" x="718.5" y="1379.0513">Product details (or not found)</text><path d="M60,1399.8603 L123,1399.8603 L123,1408.8603 L113,1418.8603 L60,1418.8603 L60,1399.8603 " fill="#EEEEEE" style="stroke: #000000; stroke-width: 1.0;"/><rect fill="none" height="226.924" style="stroke: #000000; stroke-width: 2.0;" width="1023" x="60" y="1399.8603"/><text fill="#000000" font-family="sans-serif" font-size="13" font-weight="bold" lengthAdjust="spacingAndGlyphs" textLength="18" x="75" y="1414.7573">alt</text><text fill="#000000" font-family="sans-serif" font-size="11" font-weight="bold" lengthAdjust="spacingAndGlyphs" textLength="87" x="138" y="1413.6192">[Product found]</text><polygon fill="#A80036" points="998.5,1439.2724,1008.5,1443.2724,998.5,1447.2724,1002.5,1443.2724" style="stroke: #A80036; stroke-width: 1.0;"/><line style="stroke: #A80036; stroke-width: 1.0;" x1="701.5" x2="1004.5" y1="1443.2724" y2="1443.2724"/><text fill="#000000" font-family="sans-serif" font-size="13" lengthAdjust="spacingAndGlyphs" textLength="228" x="708.5" y="1437.4634">Update product (by ID, with new data)</text><polygon fill="#A80036" points="712.5,1470.9784,702.5,1474.9784,712.5,1478.9784,708.5,1474.9784" style="stroke: #A80036; stroke-width: 1.0;"/><line style="stroke: #A80036; stroke-width: 1.0; stroke-dasharray: 2.0,2.0;" x1="706.5" x2="1009.5" y1="1474.9784" y2="1474.9784"/><text fill="#000000" font-family="sans-serif" font-size="13" lengthAdjust="spacingAndGlyphs" textLength="108" x="718.5" y="1469.1694">Update successful</text><polygon fill="#A80036" points="403.5,1502.6844,393.5,1506.6844,403.5,1510.6844,399.5,1506.6844" style="stroke: #A80036; stroke-width: 1.0;"/><line style="stroke: #A80036; stroke-width: 1.0; stroke-dasharray: 2.0,2.0;" x1="397.5" x2="700.5" y1="1506.6844" y2="1506.6844"/><text fill="#000000" font-family="sans-serif" font-size="13" lengthAdjust="spacingAndGlyphs" textLength="175" x="409.5" y="1500.8754">Product updated successfully</text><polygon fill="#A80036" points="106,1534.3904,96,1538.3904,106,1542.3904,102,1538.3904" style="stroke: #A80036; stroke-width: 1.0;"/><line style="stroke: #A80036; stroke-width: 1.0; stroke-dasharray: 2.0,2.0;" x1="100" x2="391.5" y1="1538.3904" y2="1538.3904"/><text fill="#000000" font-family="sans-serif" font-size="13" lengthAdjust="spacingAndGlyphs" textLength="182" x="112" y="1532.5814">Product updated confirmation</text><line style="stroke: #000000; stroke-width: 1.0; stroke-dasharray: 2.0,2.0;" x1="60" x2="1083" y1="1547.3904" y2="1547.3904"/><text fill="#000000" font-family="sans-serif" font-size="11" font-weight="bold" lengthAdjust="spacingAndGlyphs" textLength="109" x="65" y="1559.1493">[Product not found]</text><polygon fill="#A80036" points="403.5,1583.0783,393.5,1587.0783,403.5,1591.0783,399.5,1587.0783" style="stroke: #A80036; stroke-width: 1.0;"/><line style="stroke: #A80036; stroke-width: 1.0; stroke-dasharray: 2.0,2.0;" x1="397.5" x2="700.5" y1="1587.0783" y2="1587.0783"/><text fill="#000000" font-family="sans-serif" font-size="13" lengthAdjust="spacingAndGlyphs" textLength="111" x="409.5" y="1581.2693">Product not found</text><polygon fill="#A80036" points="106,1614.7843,96,1618.7843,106,1622.7843,102,1618.7843" style="stroke: #A80036; stroke-width: 1.0;"/><line style="stroke: #A80036; stroke-width: 1.0; stroke-dasharray: 2.0,2.0;" x1="100" x2="391.5" y1="1618.7843" y2="1618.7843"/><text fill="#000000" font-family="sans-serif" font-size="13" lengthAdjust="spacingAndGlyphs" textLength="167" x="112" y="1612.9753">Product not found message</text><line style="stroke: #000000; stroke-width: 1.0; stroke-dasharray: 2.0,2.0;" x1="50" x2="1262" y1="1634.7843" y2="1634.7843"/><text fill="#000000" font-family="sans-serif" font-size="11" font-weight="bold" lengthAdjust="spacingAndGlyphs" textLength="142" x="55" y="1646.5432">[Does not have authority]</text><polygon fill="#A80036" points="712.5,1670.4722,702.5,1674.4722,712.5,1678.4722,708.5,1674.4722" style="stroke: #A80036; stroke-width: 1.0;"/><line style="stroke: #A80036; stroke-width: 1.0; stroke-dasharray: 2.0,2.0;" x1="706.5" x2="1166.5" y1="1674.4722" y2="1674.4722"/><text fill="#000000" font-family="sans-serif" font-size="13" lengthAdjust="spacingAndGlyphs" textLength="83" x="718.5" y="1668.6632">Unauthorized</text><polygon fill="#A80036" points="403.5,1702.1782,393.5,1706.1782,403.5,1710.1782,399.5,1706.1782" style="stroke: #A80036; stroke-width: 1.0;"/><line style="stroke: #A80036; stroke-width: 1.0; stroke-dasharray: 2.0,2.0;" x1="397.5" x2="700.5" y1="1706.1782" y2="1706.1782"/><text fill="#000000" font-family="sans-serif" font-size="13" lengthAdjust="spacingAndGlyphs" textLength="83" x="409.5" y="1700.3692">Unauthorized</text><polygon fill="#A80036" points="106,1733.8843,96,1737.8843,106,1741.8843,102,1737.8843" style="stroke: #A80036; stroke-width: 1.0;"/><line style="stroke: #A80036; stroke-width: 1.0; stroke-dasharray: 2.0,2.0;" x1="100" x2="391.5" y1="1737.8843" y2="1737.8843"/><text fill="#000000" font-family="sans-serif" font-size="13" lengthAdjust="spacingAndGlyphs" textLength="139" x="112" y="1732.0753">Unauthorized message</text><rect fill="#EEEEEE" filter="url(#f11ulfglmei5qm)" height="3" style="stroke: #EEEEEE; stroke-width: 1.0;" width="1269" x="3" y="1774.7373"/><line style="stroke: #000000; stroke-width: 1.0;" x1="3" x2="1272" y1="1774.7373" y2="1774.7373"/><line style="stroke: #000000; stroke-width: 1.0;" x1="3" x2="1272" y1="1777.7373" y2="1777.7373"/><rect fill="#EEEEEE" filter="url(#f11ulfglmei5qm)" height="25.706" style="stroke: #000000; stroke-width: 2.0;" width="170" x="552.5" y="1762.8843"/><text fill="#000000" font-family="sans-serif" font-size="13" font-weight="bold" lengthAdjust="spacingAndGlyphs" textLength="153" x="558.5" y="1780.7813">Delete Product (Admin)</text><polygon fill="#A80036" points="380.5,1818.2963,390.5,1822.2963,380.5,1826.2963,384.5,1822.2963" style="stroke: #A80036; stroke-width: 1.0;"/><line style="stroke: #A80036; stroke-width: 1.0;" x1="95" x2="386.5" y1="1822.2963" y2="1822.2963"/><text fill="#000000" font-family="sans-serif" font-size="13" lengthAdjust="spacingAndGlyphs" textLength="182" x="102" y="1816.4873">Initiates Delete Product (by ID)</text><polygon fill="#A80036" points="689.5,1850.0023,699.5,1854.0023,689.5,1858.0023,693.5,1854.0023" style="stroke: #A80036; stroke-width: 1.0;"/><line style="stroke: #A80036; stroke-width: 1.0;" x1="392.5" x2="695.5" y1="1854.0023" y2="1854.0023"/><text fill="#000000" font-family="sans-serif" font-size="13" lengthAdjust="spacingAndGlyphs" textLength="166" x="399.5" y="1848.1933">DELETE /products/{id} (JWT)</text><polygon fill="#A80036" points="1155.5,1881.7083,1165.5,1885.7083,1155.5,1889.7083,1159.5,1885.7083" style="stroke: #A80036; stroke-width: 1.0;"/><line style="stroke: #A80036; stroke-width: 1.0;" x1="701.5" x2="1161.5" y1="1885.7083" y2="1885.7083"/><text fill="#000000" font-family="sans-serif" font-size="13" lengthAdjust="spacingAndGlyphs" textLength="247" x="708.5" y="1879.8993">POST /auth/has-authority (JWT, "ADMIN")</text><path d="M50,1900.7083 L113,1900.7083 L113,1909.7083 L103,1919.7083 L50,1919.7083 L50,1900.7083 " fill="#EEEEEE" style="stroke: #000000; stroke-width: 1.0;"/><rect fill="none" height="404.436" style="stroke: #000000; stroke-width: 2.0;" width="1212" x="50" y="1900.7083"/><text fill="#000000" font-family="sans-serif" font-size="13" font-weight="bold" lengthAdjust="spacingAndGlyphs" textLength="18" x="65" y="1915.6053">alt</text><text fill="#000000" font-family="sans-serif" font-size="11" font-weight="bold" lengthAdjust="spacingAndGlyphs" textLength="83" x="128" y="1914.4672">[Has authority]</text><polygon fill="#A80036" points="712.5,1940.1204,702.5,1944.1204,712.5,1948.1204,708.5,1944.1204" style="stroke: #A80036; stroke-width: 1.0;"/><line style="stroke: #A80036; stroke-width: 1.0; stroke-dasharray: 2.0,2.0;" x1="706.5" x2="1166.5" y1="1944.1204" y2="1944.1204"/><text fill="#000000" font-family="sans-serif" font-size="13" lengthAdjust="spacingAndGlyphs" textLength="166" x="718.5" y="1938.3114">Token is valid, has authority</text><polygon fill="#A80036" points="998.5,1971.8264,1008.5,1975.8264,998.5,1979.8264,1002.5,1975.8264" style="stroke: #A80036; stroke-width: 1.0;"/><line style="stroke: #A80036; stroke-width: 1.0;" x1="701.5" x2="1004.5" y1="1975.8264" y2="1975.8264"/><text fill="#000000" font-family="sans-serif" font-size="13" lengthAdjust="spacingAndGlyphs" textLength="123" x="708.5" y="1970.0174">Delete product by ID</text><polygon fill="#A80036" points="712.5,2003.5324,702.5,2007.5324,712.5,2011.5324,708.5,2007.5324" style="stroke: #A80036; stroke-width: 1.0;"/><line style="stroke: #A80036; stroke-width: 1.0; stroke-dasharray: 2.0,2.0;" x1="706.5" x2="1009.5" y1="2007.5324" y2="2007.5324"/><text fill="#000000" font-family="sans-serif" font-size="13" lengthAdjust="spacingAndGlyphs" textLength="188" x="718.5" y="2001.7234">Delete successful (or not found)</text><path d="M60,2022.5324 L123,2022.5324 L123,2031.5324 L113,2041.5324 L60,2041.5324 L60,2022.5324 " fill="#EEEEEE" style="stroke: #000000; stroke-width: 1.0;"/><rect fill="none" height="163.512" style="stroke: #000000; stroke-width: 2.0;" width="712.5" x="60" y="2022.5324"/><text fill="#000000" font-family="sans-serif" font-size="13" font-weight="bold" lengthAdjust="spacingAndGlyphs" textLength="18" x="75" y="2037.4294">alt</text><text fill="#000000" font-family="sans-serif" font-size="11" font-weight="bold" lengthAdjust="spacingAndGlyphs" textLength="103" x="138" y="2036.2913">[Delete successful]</text><polygon fill="#A80036" points="403.5,2061.9444,393.5,2065.9444,403.5,2069.9444,399.5,2065.9444" style="stroke: #A80036; stroke-width: 1.0;"/><line style="stroke: #A80036; stroke-width: 1.0; stroke-dasharray: 2.0,2.0;" x1="397.5" x2="700.5" y1="2065.9444" y2="2065.9444"/><text fill="#000000" font-family="sans-serif" font-size="13" lengthAdjust="spacingAndGlyphs" textLength="169" x="409.5" y="2060.1354">Product deleted successfully</text><polygon fill="#A80036" points="106,2093.6504,96,2097.6504,106,2101.6504,102,2097.6504" style="stroke: #A80036; stroke-width: 1.0;"/><line style="stroke: #A80036; stroke-width: 1.0; stroke-dasharray: 2.0,2.0;" x1="100" x2="391.5" y1="2097.6504" y2="2097.6504"/><text fill="#000000" font-family="sans-serif" font-size="13" lengthAdjust="spacingAndGlyphs" textLength="176" x="112" y="2091.8414">Product deleted confirmation</text><line style="stroke: #000000; stroke-width: 1.0; stroke-dasharray: 2.0,2.0;" x1="60" x2="772.5" y1="2106.6504" y2="2106.6504"/><text fill="#000000" font-family="sans-serif" font-size="11" font-weight="bold" lengthAdjust="spacingAndGlyphs" textLength="109" x="65" y="2118.4094">[Product not found]</text><polygon fill="#A80036" points="403.5,2142.3383,393.5,2146.3383,403.5,2150.3383,399.5,2146.3383" style="stroke: #A80036; stroke-width: 1.0;"/><line style="stroke: #A80036; stroke-width: 1.0; stroke-dasharray: 2.0,2.0;" x1="397.5" x2="700.5" y1="2146.3383" y2="2146.3383"/><text fill="#000000" font-family="sans-serif" font-size="13" lengthAdjust="spacingAndGlyphs" textLength="111" x="409.5" y="2140.5293">Product not found</text><polygon fill="#A80036" points="106,2174.0444,96,2178.0444,106,2182.0444,102,2178.0444" style="stroke: #A80036; stroke-width: 1.0;"/><line style="stroke: #A80036; stroke-width: 1.0; stroke-dasharray: 2.0,2.0;" x1="100" x2="391.5" y1="2178.0444" y2="2178.0444"/><text fill="#000000" font-family="sans-serif" font-size="13" lengthAdjust="spacingAndGlyphs" textLength="167" x="112" y="2172.2354">Product not found message</text><line style="stroke: #000000; stroke-width: 1.0; stroke-dasharray: 2.0,2.0;" x1="50" x2="1262" y1="2194.0444" y2="2194.0444"/><text fill="#000000" font-family="sans-serif" font-size="11" font-weight="bold" lengthAdjust="spacingAndGlyphs" textLength="142" x="55" y="2205.8033">[Does not have authority]</text><polygon fill="#A80036" points="712.5,2229.7323,702.5,2233.7323,712.5,2237.7323,708.5,2233.7323" style="stroke: #A80036; stroke-width: 1.0;"/><line style="stroke: #A80036; stroke-width: 1.0; stroke-dasharray: 2.0,2.0;" x1="706.5" x2="1166.5" y1="2233.7323" y2="2233.7323"/><text fill="#000000" font-family="sans-serif" font-size="13" lengthAdjust="spacingAndGlyphs" textLength="83" x="718.5" y="2227.9233">Unauthorized</text><polygon fill="#A80036" points="403.5,2261.4383,393.5,2265.4383,403.5,2269.4383,399.5,2265.4383" style="stroke: #A80036; stroke-width: 1.0;"/><line style="stroke: #A80036; stroke-width: 1.0; stroke-dasharray: 2.0,2.0;" x1="397.5" x2="700.5" y1="2265.4383" y2="2265.4383"/><text fill="#000000" font-family="sans-serif" font-size="13" lengthAdjust="spacingAndGlyphs" textLength="83" x="409.5" y="2259.6293">Unauthorized</text><polygon fill="#A80036" points="106,2293.1443,96,2297.1443,106,2301.1443,102,2297.1443" style="stroke: #A80036; stroke-width: 1.0;"/><line style="stroke: #A80036; stroke-width: 1.0; stroke-dasharray: 2.0,2.0;" x1="100" x2="391.5" y1="2297.1443" y2="2297.1443"/><text fill="#000000" font-family="sans-serif" font-size="13" lengthAdjust="spacingAndGlyphs" textLength="139" x="112" y="2291.3353">Unauthorized message</text><rect fill="#EEEEEE" filter="url(#f11ulfglmei5qm)" height="3" style="stroke: #EEEEEE; stroke-width: 1.0;" width="1269" x="3" y="2333.9973"/><line style="stroke: #000000; stroke-width: 1.0;" x1="3" x2="1272" y1="2333.9973" y2="2333.9973"/><line style="stroke: #000000; stroke-width: 1.0;" x1="3" x2="1272" y1="2336.9973" y2="2336.9973"/><rect fill="#EEEEEE" filter="url(#f11ulfglmei5qm)" height="25.706" style="stroke: #000000; stroke-width: 2.0;" width="113" x="581" y="2322.1443"/><text fill="#000000" font-family="sans-serif" font-size="13" font-weight="bold" lengthAdjust="spacingAndGlyphs" textLength="96" x="587" y="2340.0413">List Categories</text><polygon fill="#A80036" points="380.5,2377.5563,390.5,2381.5563,380.5,2385.5563,384.5,2381.5563" style="stroke: #A80036; stroke-width: 1.0;"/><line style="stroke: #A80036; stroke-width: 1.0;" x1="41.5" x2="386.5" y1="2381.5563" y2="2381.5563"/><text fill="#000000" font-family="sans-serif" font-size="13" lengthAdjust="spacingAndGlyphs" textLength="137" x="48.5" y="2375.7473">Requests Category List</text><polygon fill="#A80036" points="689.5,2409.2624,699.5,2413.2624,689.5,2417.2624,693.5,2413.2624" style="stroke: #A80036; stroke-width: 1.0;"/><line style="stroke: #A80036; stroke-width: 1.0;" x1="392.5" x2="695.5" y1="2413.2624" y2="2413.2624"/><text fill="#000000" font-family="sans-serif" font-size="13" lengthAdjust="spacingAndGlyphs" textLength="93" x="399.5" y="2407.4533">GET /categories</text><polygon fill="#A80036" points="998.5,2440.9684,1008.5,2444.9684,998.5,2448.9684,1002.5,2444.9684" style="stroke: #A80036; stroke-width: 1.0;"/><line style="stroke: #A80036; stroke-width: 1.0;" x1="701.5" x2="1004.5" y1="2444.9684" y2="2444.9684"/><text fill="#000000" font-family="sans-serif" font-size="13" lengthAdjust="spacingAndGlyphs" textLength="118" x="708.5" y="2439.1594">Query all categories</text><polygon fill="#A80036" points="712.5,2472.6744,702.5,2476.6744,712.5,2480.6744,708.5,2476.6744" style="stroke: #A80036; stroke-width: 1.0;"/><line style="stroke: #A80036; stroke-width: 1.0; stroke-dasharray: 2.0,2.0;" x1="706.5" x2="1009.5" y1="2476.6744" y2="2476.6744"/><text fill="#000000" font-family="sans-serif" font-size="13" lengthAdjust="spacingAndGlyphs" textLength="101" x="718.5" y="2470.8654">List of categories</text><polygon fill="#A80036" points="403.5,2504.3804,393.5,2508.3804,403.5,2512.3804,399.5,2508.3804" style="stroke: #A80036; stroke-width: 1.0;"/><line style="stroke: #A80036; stroke-width: 1.0; stroke-dasharray: 2.0,2.0;" x1="397.5" x2="700.5" y1="2508.3804" y2="2508.3804"/><text fill="#000000" font-family="sans-serif" font-size="13" lengthAdjust="spacingAndGlyphs" textLength="101" x="409.5" y="2502.5714">List of categories</text><polygon fill="#A80036" points="52.5,2536.0864,42.5,2540.0864,52.5,2544.0864,48.5,2540.0864" style="stroke: #A80036; stroke-width: 1.0;"/><line style="stroke: #A80036; stroke-width: 1.0; stroke-dasharray: 2.0,2.0;" x1="46.5" x2="391.5" y1="2540.0864" y2="2540.0864"/><text fill="#000000" font-family="sans-serif" font-size="13" lengthAdjust="spacingAndGlyphs" textLength="125" x="58.5" y="2534.2774">Displays category list</text><!--MD5=[cdc868c57eafded414addfb31fe53fd7]
@startuml product-flow
actor User
actor Admin
participant "Client Application" as Client
participant "Product Service" as ProductSvc
database "Product Database" as ProductDB
participant "Authentication Service" as AuthService


== List Products ==
User -> Client: Requests Product List (with optional filters, pagination)
Client -> ProductSvc: GET /products (filters, page, limit)
ProductSvc -> ProductDB: Query products (with applied filters, pagination)
ProductDB - -> ProductSvc: List of products
ProductSvc - -> Client: List of products (paginated)
Client - -> User: Displays product list

== Get Product Details ==
User -> Client: Requests Product Details (by ID)
Client -> ProductSvc: GET /products/{id}
ProductSvc -> ProductDB: Find product by ID
ProductDB - -> ProductSvc: Product details (or not found)
alt Product found
    ProductSvc - -> Client: Product details
    Client - -> User: Displays product details
else Product not found
    ProductSvc - -> Client: Product not found
    Client - -> User: Displays "product not found" message
end

== Add a Product (Admin) ==
Admin -> Client: Initiates Add Product
Client -> ProductSvc: POST /products (product data, JWT)
ProductSvc -> AuthService: POST /auth/has-authority (JWT, "ADMIN")
alt Has authority
    AuthService - -> ProductSvc: Token is valid, has authority
    ProductSvc -> ProductDB: Save new product
    ProductDB - -> ProductSvc: Product saved confirmation (with new ID)
    ProductSvc - -> Client: Product added successfully
    Client - -> Admin: Product added confirmation
else Does not have authority
    AuthService - -> ProductSvc: Unauthorized
    ProductSvc - -> Client: Unauthorized
    Client - -> Admin: Unauthorized message
end

== Update Product (Admin) ==
Admin -> Client: Initiates Update Product (by ID)
Client -> ProductSvc: PUT /products/{id} (updated product data, JWT)
ProductSvc -> AuthService: POST /auth/has-authority (JWT, "ADMIN")
alt Has authority
    AuthService - -> ProductSvc: Token is valid, has authority
    ProductSvc -> ProductDB: Find product by ID
    ProductDB - -> ProductSvc: Product details (or not found)
    alt Product found
        ProductSvc -> ProductDB: Update product (by ID, with new data)
        ProductDB - -> ProductSvc: Update successful
        ProductSvc - -> Client: Product updated successfully
        Client - -> Admin: Product updated confirmation
    else Product not found
        ProductSvc - -> Client: Product not found
        Client - -> Admin: Product not found message
    end
else Does not have authority
    AuthService - -> ProductSvc: Unauthorized
    ProductSvc - -> Client: Unauthorized
    Client - -> Admin: Unauthorized message
end

== Delete Product (Admin) ==
Admin -> Client: Initiates Delete Product (by ID)
Client -> ProductSvc: DELETE /products/{id} (JWT)
ProductSvc -> AuthService: POST /auth/has-authority (JWT, "ADMIN")
alt Has authority
    AuthService - -> ProductSvc: Token is valid, has authority
    ProductSvc -> ProductDB: Delete product by ID
    ProductDB - -> ProductSvc: Delete successful (or not found)
    alt Delete successful
        ProductSvc - -> Client: Product deleted successfully
        Client - -> Admin: Product deleted confirmation
    else Product not found
        ProductSvc - -> Client: Product not found
        Client - -> Admin: Product not found message
    end
else Does not have authority
    AuthService - -> ProductSvc: Unauthorized
    ProductSvc - -> Client: Unauthorized
    Client - -> Admin: Unauthorized message
end

== List Categories ==
User -> Client: Requests Category List
Client -> ProductSvc: GET /categories
ProductSvc -> ProductDB: Query all categories
ProductDB - -> ProductSvc: List of categories
ProductSvc - -> Client: List of categories
Client - -> User: Displays category list


@enduml

PlantUML version 1.2020.02(Sun Mar 01 15:52:07 IST 2020)
(GPL source distribution)
Java Runtime: OpenJDK Runtime Environment
JVM: OpenJDK 64-Bit Server VM
Java Version: 21.0.6+7-Ubuntu-124.04.1
Operating System: Linux
Default Encoding: UTF-8
Language: en
Country: US
--></g></svg>